<?xml version="1.0" encoding="UTF-8" standalone="no"?>
<svg
   xmlns:dc="http://purl.org/dc/elements/1.1/"
   xmlns:cc="http://creativecommons.org/ns#"
   xmlns:rdf="http://www.w3.org/1999/02/22-rdf-syntax-ns#"
   xmlns:svg="http://www.w3.org/2000/svg"
   xmlns="http://www.w3.org/2000/svg"
   viewBox="0 0 426.66666 362.81332"
   height="291"
   width="342"
   xml:space="preserve"
   id="svg2"
   version="1.1"><metadata
     id="metadata8"><rdf:RDF><cc:Work
         rdf:about=""><dc:format>image/svg+xml</dc:format><dc:type
           rdf:resource="http://purl.org/dc/dcmitype/StillImage" /></cc:Work></rdf:RDF></metadata><defs
     id="defs6" /><g
     transform="matrix(1.3333333,0,0,-1.3333333,0,362.81333)"
     id="g10"><g
       transform="scale(0.1)"
       id="g12"><path
         id="path14"
         style="fill:#ffffff;fill-opacity:1;fill-rule:nonzero;stroke:none"
         d="m 1980.51,2721.09 h -747.27 c -40.28,0 -72.92,-32.62 -72.92,-72.9 v -334.14 c 0,-40.25 32.64,-72.92 72.92,-72.92 h 747.27 c 40.25,0 72.9,32.67 72.9,72.92 v 334.14 c 0,40.28 -32.65,72.9 -72.9,72.9" /><path
         id="path16"
         style="fill:#df1a35;fill-opacity:1;fill-rule:nonzero;stroke:none"
         d="m 1902.77,2494.88 6.41,-9.16 v -8.68 l 7.8,-1.39 6.86,-9.59 v -8.25 l 7.77,-1.36 c 0,0 7.8,-8.23 7.8,-8.71 0,0.48 0,-18.75 0,-18.75 0,0 16.96,-15.54 32.08,-21.5 10.53,-4.11 11.89,-21.05 17.87,-30.21 8.23,-12.79 19.21,-18.3 16.94,-25.61 -5.48,-19.69 -25.62,-52.65 -44.37,-54.52 0,0 -46.68,0 -74.17,-0.03 l 0.03,-31.68 h 92.72 c 26.81,0 48.59,21.81 48.59,48.61 v 334.14 c 0,12.97 -5.05,25.19 -14.21,34.35 -9.19,9.19 -21.39,14.24 -34.38,14.24 h -208.93 l 120.21,-200.54 10.98,-1.36" /><path
         id="path18"
         style="fill:#192846;fill-opacity:1;fill-rule:nonzero;stroke:none"
         d="m 1700.36,2696.81 h -467.14 c -12.97,0 -25.19,-5.08 -34.35,-14.24 -9.19,-9.19 -14.24,-21.41 -14.24,-34.38 v -334.14 c 0,-12.99 5.05,-25.18 14.24,-34.37 9.16,-9.2 21.38,-14.24 34.35,-14.24 h 303.47 c -7.63,12.68 -16.17,27.11 -18.81,31.48 h -36.16 c -0.06,89.72 30.6,139.62 66.77,149.26 5.02,0.94 2.72,25.64 -3.69,32.96 0,0 -17.39,-0.48 -21.07,0.45 -4.57,1.36 -1.36,5.93 -1.36,5.93 l 16.9,36.65 -2.27,10.07 -62.71,-0.06 c -0.94,0.03 51.68,36.22 51.68,36.22 2.69,95.19 100.21,102.57 159.27,63.26 34.8,-23.35 37.58,-69.13 34.86,-101.15 -0.46,-1.85 -9.16,-0.49 -9.16,-0.49 0,0 -5.93,-34.77 9.61,-34.77 l 68.67,0.03 c 27.94,0.93 54.95,-17.82 54.95,-17.82 l 6.86,23.8 -150.67,195.55" /><path
         id="path20"
         style="fill:#ffffff;fill-opacity:1;fill-rule:nonzero;stroke:none"
         d="m 1285.09,2334.2 c 18.44,0.02 33.36,14.97 33.33,33.41 0,18.41 -14.95,33.35 -33.35,33.35 -18.44,-0.02 -33.39,-14.97 -33.36,-33.41 0,-18.41 14.95,-33.35 33.38,-33.35" /><path
         id="path22"
         style="fill:#df1a35;fill-opacity:1;fill-rule:nonzero;stroke:none"
         d="m 649.215,2308.27 h -78.289 l 66.601,65.32 c 9.871,9.5 13.899,19.89 13.899,35.83 v 25.19 c 0,23.57 -19.856,42.74 -44.278,42.74 h -78.484 c -24.426,0 -44.277,-19.17 -44.277,-42.74 v -24.34 h 47.621 v 14.04 c 0,4.06 3.433,8.28 9.191,8.28 h 51.938 c 4.992,0 9.16,-3.8 9.16,-8.28 v -14.89 c 0,-4.49 -1.047,-6.98 -4.539,-10.64 l -113.09,-111.98 -0.281,-0.29 v -22.97 h 164.828 v 44.73" /><path
         id="path24"
         style="fill:#df1a35;fill-opacity:1;fill-rule:nonzero;stroke:none"
         d="m 880.867,2427.83 c 0,4.56 4.113,8.28 9.164,8.28 h 70.77 c 4.965,0 9.16,-3.77 9.16,-8.28 v -111.28 c 0,-4.51 -4.195,-8.31 -9.16,-8.31 h -70.77 c -4.965,0 -9.164,3.8 -9.164,8.31 z m -1.898,-164.32 h 92.894 c 25.813,0 46.827,20.28 46.827,45.24 v 126.88 c 0,24.96 -21.014,45.24 -46.827,45.24 h -92.894 c -25.84,0 -46.86,-20.28 -46.86,-45.24 v -126.88 c 0,-24.96 21.02,-45.24 46.86,-45.24" /><path
         id="path26"
         style="fill:#df1a35;fill-opacity:1;fill-rule:nonzero;stroke:none"
         d="m 2257.72,2405.7 v -97.43 h -43.48 v -44.73 h 136.09 v 44.73 h -43.51 l -0.37,165.62 v 0.97 h -29.64 l -66.63,-54.3 -0.76,-0.62 27.2,-32.45 21.1,18.21" /><path
         id="path28"
         style="fill:#df1a35;fill-opacity:1;fill-rule:nonzero;stroke:none"
         d="m 2567.27,2355.67 c 2.01,2.01 5.13,3.2 8.42,3.2 h 52.7 c 5.73,0 9.16,-4.23 9.16,-8.31 v -34.01 c 0,-4.09 -3.43,-8.31 -9.16,-8.31 h -51.96 c -4.97,0 -9.16,3.8 -9.16,8.31 z m -1.9,-92.16 h 74.45 c 25.84,0 46.86,20.31 46.86,45.24 v 42.89 c 0,24.93 -21.02,45.21 -46.86,45.21 h -52.33 c -7.46,0 -14.27,-1.13 -20.22,-3.37 v 34.35 c 0,4.51 4.19,8.31 9.16,8.31 h 53.44 c 5.73,0 9.16,-4.23 9.16,-8.31 v -14.02 h 47.65 v 21.84 c 0,24.94 -21.02,45.24 -46.86,45.24 h -74.45 c -25.82,0 -46.86,-20.3 -46.86,-45.24 v -126.9 c 0,-24.93 21.04,-45.24 46.86,-45.24" /><path
         id="path30"
         style="fill:#df1a35;fill-opacity:1;fill-rule:nonzero;stroke:none"
         d="m 2961.28,124.441 c 9.82,21.161 19.6,42.321 29.36,63.45 -79.39,-79 -81.66,-80.301 -129.03,-62.403 67.96,27.032 88.84,73.211 63.82,101.203 -24.62,-65.07 -54.8,-86.48 -100.75,-69.011 46.26,30.492 74.88,65.039 49.38,114.59 -18.12,-27.508 -32.36,-53.071 -51.4,-76.891 -17.92,-22.41 -32.56,-22.699 -67.16,-6.527 47.96,40.109 65.46,84.808 32.78,137.878 -11.23,-10.121 -18.6,-21.3 -23.93,-32.929 -9.31,-20.281 -14.56,-41.692 -26.72,-61.102 -13.25,-21.129 -36.14,-26.539 -66.24,-3.82 55.94,45.953 35.94,95.223 -4.05,146.101 -10.47,-11.199 -17.87,-23.14 -20.14,-35.648 -2.84,-15.742 2.32,-32.652 -2.92,-47.801 -6.19,-17.781 -1.08,-48.699 -50.63,-38.601 -47.03,9.59 -20.11,32.929 -13.7,50.09 14.55,39 -12.09,71.539 -43.57,104.378 -11.01,-0.789 -6.75,-65.546 -12.37,-99.16 -1.45,-8.758 -18.27,-25.527 -26.69,-25.758 -20.93,-0.558 -43.34,4.489 -63.96,9.481 -4.68,1.129 -6.58,11.57 -6.24,17.527 0.62,10.293 3.8,20.481 6.27,30.633 11.06,45.5 -21.42,81.379 -71.09,121.199 -11.85,0.711 -6.07,-25.211 -6.04,-34.769 0.14,-27.262 3.12,-54.629 1.65,-81.832 -0.46,-8.117 -14.5,-23.008 -17.79,-22.41 -19.34,3.351 -39.6,8.57 -54.88,16.793 -7.83,4.199 -5.42,16.078 -8.54,24.39 -10.01,26.637 -15.57,54.488 -32.28,79.34 -20.62,32.309 -55.31,61.5 -68.39,59.879 -35.51,-62.832 19.04,-107.902 31.23,-155.332 -70.46,-7.969 -108.49,12.633 -126.59,54.519 -8.2,19 -17.47,39.571 -35.83,54.551 -20.56,16.789 -64.1,59.871 -79.47,42.711 -14.95,-49.32 32.3,-86.512 55.76,-127.922 -72.67,-10.129 -120.01,-0.679 -142.42,25.981 -32.11,38.211 -65.52,75.851 -100.21,112.863 -5.16,5.527 -20.31,7.117 -30.83,10.5 -5.36,-7.402 -18.07,-16.762 -14.95,-21.934 20.93,-34.316 44.82,-67.898 68.81,-101.457 4.8,-6.691 14.27,-11.972 23.06,-19.121 -54.12,-11.031 -89.32,1.649 -115.24,25.25 -37.16,33.84 -70.86,69.211 -107.76,102.961 -8.11,7.43 -23.46,11.52 -35.49,17.11 -4.87,-8.879 -11.77,-17.621 -13.95,-26.719 -1.36,-5.703 2.95,-12.434 7.06,-17.902 25.25,-33.731 51.17,-67.282 76.84,-100.918 -54.83,-15.973 -90.54,-13.364 -128.21,15.597 -28.42,21.84 -48.39,48.301 -76.78,70.063 -25.98,19.91 -58.23,36.277 -87.73,54.09 -4.91,-2.582 -9.82,-5.192 -14.75,-7.77 -5.59,-56.281 51.11,-91.453 107.81,-127.133 -43.71,-11.937 -76.53,-12.429 -107.33,4.68 -55.79,30.941 -107.87,64.332 -162.39,95.762 -7,4.019 -19.14,4.418 -28.9,6.461 -2.24,-6.801 -8.82,-14.692 -6.04,-20.223 18.01,-35.82 47.14,-66.43 98.76,-85.918 10.5,-3.973 19.69,-9.242 30.52,-14.41 -70.29,-31.68 -143.35,-24.082 -194.72,17.648 -35.23,28.621 -71.935,56.332 -107.7,84.071 -51.996,-26.95 -42.012,-22.75 7.543,-75.481 20.82,-22.148 62.007,-35.648 95.167,-53.918 -51.97,-9.812 -96.585,-5.191 -132.382,14.949 -37.355,21.02 -70.543,44.961 -107.133,66.321 -8.394,4.929 -23.203,5.3 -35.058,7.738 -0.852,-8.43 -6.098,-18.27 -1.789,-25.047 C 809.273,367.129 841.469,333 913.035,319.98 827.91,292.949 773.281,303.332 720.492,349.43 c -20.961,18.289 -50.09,32.359 -75.476,48.269 -9.817,2.582 -19.571,-0.847 -19.344,-10.179 15.09,-20.2 25.387,-43.032 46.547,-59.911 22.465,-17.89 55.226,-30.148 83.277,-44.871 -56.164,-29.047 -117.004,-29.5 -146.137,1.934 -11.91,12.848 -26.859,24.34 -39.937,36.648 -15.77,14.891 -33.469,27.621 -67.024,29.071 5.985,-55.481 48.36,-87.903 124.379,-102.711 -31.117,-21.559 -61.863,-22.969 -88.242,-12.481 -27.715,11.031 -51.683,25.84 -75.14,40.391 -17.555,10.871 -31.684,24.031 -47.368,36.14 -3.773,-2.191 -7.547,-4.371 -11.316,-6.55 11.117,-46.098 37.609,-83.711 126.078,-89.27 -61.066,-28.449 -128.121,-17.441 -151.098,20.141 -4.906,8.058 -13.187,15.008 -19.914,22.469 -20.902,-56.141 28.168,-72.45 96.274,-77.86 -55.34,-35.148 -65.438,-36.539 -111.192,-16.09 -19.796,8.821 -38.886,18.27 -58.289,27.371 4.422,-27 29.383,-43.882 88.953,-59.589 -9.05,-6.133 -22.863,-12.512 -31.289,-18.211 -13.472,2.918 -53.296,12.398 -69.379,25.097 -19.515,15.434 -27.429,25.563 -27.429,25.563 0,0 -7.289,-7.891 -0.281,-19.91 6.578,-11.289 41.355,-43.2 67.847,-48.0824 -21.273,-9.4492 -34.125,-4.1094 -60.59,15.1214 -6.297,4.59 -11.941,9.562 -18.179,14.211 -6.012,4.48 -12.426,8.789 -19.942,14.07 5.59,-49.5313 62.629,-71.2813 111.477,-89.2696 34.433,-12.6797 53.297,-31.4805 80.441,-46.51952 13.02,-6.04297 44.332,-5.300786 49.352,-1.33204 C 365.309,32.9609 350.391,58.9102 354.59,90.2891 441.441,17.1289 442.121,16.8203 490.285,24.9922 384.91,81.9688 385.617,81.1797 390.469,110.738 471.793,39.9688 502,37.0195 533.543,41.6094 c 8.309,4.8515 -76.047,42.289 -99.816,68.0506 -23.77,25.75 -11.942,32.219 30.433,47.399 5.477,-73.8402 116.07,-105.7973 172.828,-92.7895 -11.347,9.4493 -30.55,16.8203 -45.043,23.9219 -30.179,14.7186 -53.269,17.2066 -70.828,37.1796 -33.101,37.668 -38.972,53.75 25.074,66.891 C 535.273,115.789 618.297,99.5898 717.289,84.8086 703.59,95.1094 695.844,101.719 686.883,107.5 c -26.153,16.941 -57.328,31.32 -77.637,50.859 -13.105,12.621 -17.101,33.02 -12.308,49.332 2.437,8.25 33.414,15.141 43.312,19.231 9.73,-34.524 25.527,-54.09 47.426,-78.973 15.148,-17.187 70.484,-39.769 93.492,-18.66 -86.543,68.332 -98.285,118.051 -21.699,132.551 10.293,-27.008 10.578,-58.781 33.523,-79.141 23.063,-20.48 64.645,-25.301 100.414,-39.57 8.196,-3.77 9.758,0 12.594,2.18 -4.426,5.023 -9.191,9.902 -13.219,15.062 -22.551,28.91 -49.183,56.59 -65.836,87.078 -10.718,19.66 35.711,48.199 76.785,49.731 43.485,1.59 16.708,-21.391 20.961,-33.16 4.512,-12.54 2.895,-26.411 8.168,-38.719 12.879,-30.153 52.758,-41.692 98.991,-60.129 -3.83,15.117 -4.45,22.316 -7.54,28.957 -11.52,24.562 -27.087,48.301 -35.146,73.492 -12.535,39.199 6.324,51.09 72.506,49.098 4.9,-25.668 2.92,-53.41 16.7,-76.559 12.71,-21.301 38.32,-41.101 86.03,-45.07 -7.49,25.902 -14.92,46.629 -19.37,67.789 -12.08,57.641 -28,70.461 93.26,76.562 8.17,0.43 16.37,-0.589 27.35,-1.082 -4.63,-22.379 -8.71,-43.05 -13.22,-63.699 -5.82,-26.672 17.75,-55.398 55.11,-61.699 6.64,-1.102 26.75,10.019 28.05,16.109 4.51,21.481 3.95,43.231 4.54,64.871 1.05,40.481 25.42,56.481 96.27,58.969 -6.46,-23.648 -14.95,-46.711 -18.69,-70 -5.36,-33.328 23.6,-52.808 61.84,-45.531 5.95,20.711 12.22,40.941 17.55,61.242 12.34,47.258 32.05,56.758 114.31,50.828 -2.12,-9.949 -2.86,-20.129 -6.72,-29.859 -5.47,-13.789 -14.89,-27.039 -19.66,-40.91 -10.09,-29.41 5.42,-46.848 38.69,-47.539 20.43,32.48 38.98,65.16 62.12,96.441 5.85,7.918 25.59,14.387 40.39,16.258 17.7,2.269 36.93,-1.11 63.11,-2.469 -6.97,-15.402 -13.98,-28.391 -18.6,-41.672 -5.76,-16.48 -12.97,-33.269 -12.65,-49.808 0.17,-7.512 16.85,-14.75 26.04,-22.121 9.33,6.011 22.23,11 27.34,18.21 21.3,30.18 40.08,61.04 60.39,91.418 2.04,3.012 8,6.75 12.9,6.954 35.8,1.527 64.79,-2.532 111.9,2.238 -18.32,-26.61 -28.22,-34.551 -40.81,-52.192 -12.2,-17.046 -27.38,-33.437 -36.37,-51.168 -2.61,-5.218 11.4,-13.898 17.82,-21.019 8.42,3.969 18.18,7.18 24.9,12.078 8.25,6.043 13.33,13.82 20.9,20.262 25.33,21.609 50.95,43.051 76.96,64.211 6.72,5.449 14.86,14.918 23.17,14.16 30.04,-2.75 58.92,-4.402 88.98,-4.973 10.41,-54.969 -94.57,-64.719 -86.43,-118.39 20.57,7.523 31.38,20.73 47.52,30.152 24.82,14.469 52.95,26.578 80.27,39.059 29.41,13.421 44.79,49.3 99.05,25.07 0.25,-50 -87.42,-63.871 -107.28,-115.211 29.11,10.769 47.54,22.262 68.59,24.332 46.01,4.539 75.53,22.777 91.79,46.18 22.18,31.879 55.31,19.738 91.11,12.929 3.4,-28.129 -30.19,-40.59 -57.84,-58.09 -20.62,-13.019 -40.17,-26.832 -60.16,-40.332 22.75,3.661 38.12,11.434 54.4,18.352 35.26,14.98 75.31,26.469 105.21,44.82 25.5,15.66 42.97,9.95 70.91,0.309 -7.32,-40.449 -58.35,-50.938 -100.7,-73.981 58.69,-8.648 116.92,8.743 156.01,41.594 6.55,5.528 23.23,5.809 35.2,8.508 0.25,-7.578 5.5,-18.02 -0.11,-22.18 -21.9,-16.261 -46.69,-30.922 -71.57,-45.449 -10.27,-6.012 -23.48,-9.949 -35.37,-14.859 10.07,-5.473 16.59,-7.032 20.74,-5.703 44.13,13.933 87.61,28.511 131.95,41.812 9.78,2.918 22.38,2.301 33.67,3.289 0.93,-8.058 7.09,-18.578 1.67,-23.629 -10.89,-10.121 -26.55,-18.832 -43.08,-25.301 -20.71,-8.109 -44.28,-13.39 -74.09,-22.1792 59.28,-8.9922 95.76,2.8902 128.77,24.1402 9.16,5.93 28.45,5.219 43.12,7.508 -3.72,-9.64 -2.44,-23.23 -12.06,-28.097 -25.87,-13.1411 -56.36,-22.5825 -82.85,-32.77 69.8,-15.7734 88.13,16.9883 135.3,35.117 3.86,-1.867 7.74,-3.738 11.63,-5.617 0.42,-2.4414 1.08,-4.7304 1.9,-7 -8.71,-5.5117 -20.48,-12.4336 -31.88,-17.4218 -20.26,-8.8516 -67.85,-25.4414 -70.58,-27.7383 -3.88,-3.2617 19.95,-8.2305 66.97,8.5664 20.99,7.5117 34.61,14.582 43.32,20.1133 0.54,-1.0196 1.05,-2.0235 1.61,-3.0899 2.22,-2.8398 4.4,-5.6523 6.61,-8.4922 -45.47,-16.6484 -71.36,-25.8593 -118.33,-43.3593 37.89,-4.8282 58.31,-1.3399 75.7,7.8007 23.12,12.1094 47.06,32.418 75.76,35.3907 51.46,5.3867 74.6,23.9375 79.62,53.2694 -6.55,-5.101 -33.58,-32.1288 -79.31,-42.2304 1.99,10.1485 2.7,18.5508 2.53,24.9884 19.94,8.141 52.84,12.019 59.79,24.312" /><path
         id="path32"
         style="fill:#d9d2c7;fill-opacity:1;fill-rule:nonzero;stroke:none"
         d="m 217.559,1159.61 v -88.27 l -0.028,-10.24 -0.058,-16.54 c 5.304,-1.13 15.996,-3.15 27.172,-5.25 0.171,-0.02 0.339,-0.05 0.484,-0.08 v 92.55 h 127.016 v 27.83 H 217.559" /><path
         id="path34"
         style="fill:#d9d2c7;fill-opacity:1;fill-rule:nonzero;stroke:none"
         d="m 571.012,1095.5 v -17.98 l -17.699,-3.03 -110.879,-19.21 v -28.7 l 156.148,27.06 v 102.96 c 0,32.48 -12.113,61.87 -31.883,83.9 2.723,-11.17 4.313,-22.77 4.313,-34.77 V 1095.5" /><path
         id="path36"
         style="fill:#d9d2c7;fill-opacity:1;fill-rule:nonzero;stroke:none"
         d="m 599.973,619.488 c 0.539,74.094 1.332,124.801 1.332,198.891 0,44.652 -11.004,68.609 -31.485,83.48 1.7,-10.41 2.723,-21.98 2.778,-35.199 0.312,-50.269 0.144,-90.969 0,-134.199 -0.055,-21.012 -0.141,-42.859 -0.168,-67.02 -0.145,-84.5 -15.914,-134.171 -98.91,-154.652 l -208.934,-51.48 -3.402,-0.817 -110.227,-27.152 -0.512,-0.11 -0.539,-0.109 c -12.367,-2.359 -23.996,-3.519 -34.574,-3.519 -3.148,0 -6.156,0.199 -9.191,0.398 13.218,-17.141 32.562,-25.84 58.547,-26.871 13.953,-0.527 22.464,2.473 30.179,4.57 140.52,34.692 201.192,50.582 298.621,76.731 78.032,20.961 105.946,64.16 106.485,137.058" /><path
         id="path38"
         style="fill:#d9d2c7;fill-opacity:1;fill-rule:nonzero;stroke:none"
         d="m 351.156,808.172 c -39.711,7.18 -122.34,22.098 -227.258,48.469 -10.781,2.699 -20.48,5.48 -29.3003,8.429 10.4103,-29.531 33.6683,-41.019 83.4493,-52.449 82.598,-18.949 149.906,-32.73 194.523,-41.641 0.059,10.782 0.114,21.758 0.172,33.192 -4.566,0.937 -12.254,2.328 -21.586,4" /><path
         id="path40"
         style="fill:#d9d2c7;fill-opacity:1;fill-rule:nonzero;stroke:none"
         d="m 1100.5,631.34 -2.3,-14.692 -14.78,-1.617 -1.47,-0.14 c -126.255,-13.762 -253.755,-32.93 -379.864,-56.532 0,-14.949 0,-27.57 -0.031,-37.3 141.203,27.972 276.472,49.332 419.455,65.011 l 22.64,142.032 c -10.15,-0.77 -19.66,-1.512 -28.96,-2.25 l -14.47,-93.032 -0.22,-1.48" /><path
         id="path42"
         style="fill:#d9d2c7;fill-opacity:1;fill-rule:nonzero;stroke:none"
         d="m 1125.43,1130.93 24.53,149.68 h -28.5 l -17.05,-103.13 -0.25,-1.62 -2.67,-16.25 H 834.035 l -0.027,-90.54 -0.028,-1.59 v -3.69 l 27.629,-0.03 c 0,34.86 0,67.17 0,67.17 h 263.821" /><path
         id="path44"
         style="fill:#d9d2c7;fill-opacity:1;fill-rule:nonzero;stroke:none"
         d="M 1060.9,902.988 V 883.59 h -21.36 c -28.99,0.031 -112.806,0.031 -205.587,0.058 l -0.027,-110.226 c 9.586,1.359 18.691,2.609 27.597,3.859 0,24.59 0,51.879 0,78.848 101.063,-0.02 195.777,-0.047 226.947,-0.047 V 991.32 c -7.32,0.032 -16.65,0.032 -27.57,0.032 v -88.364" /><path
         id="path46"
         style="fill:#d9d2c7;fill-opacity:1;fill-rule:nonzero;stroke:none"
         d="m 1407.21,1132.07 h 125.42 c 0.03,10.29 0.03,19.77 0.03,27.57 h -153.05 c -0.06,-30.24 -0.15,-85.55 -0.23,-118.94 h 27.68 c 0.09,44.93 0.15,91.37 0.15,91.37" /><path
         id="path48"
         style="fill:#d9d2c7;fill-opacity:1;fill-rule:nonzero;stroke:none"
         d="m 1715.84,896.469 c -9.39,-9.387 -22.04,-16.231 -36.48,-19.969 6.22,-11.18 12.06,-21.641 17.68,-31.801 31.79,1.762 64.5,30.84 64.5,61.383 0,61.297 -0.23,309.068 -0.23,309.068 0,21.7 -11.03,40.62 -27.57,51.45 0,-25.3 0.14,-268.729 0.23,-326.389 0,-16.742 -6.24,-31.859 -18.13,-43.742" /><path
         id="path50"
         style="fill:#d9d2c7;fill-opacity:1;fill-rule:nonzero;stroke:none"
         d="m 1772.34,641.75 c -58.17,1.789 -91.5,2.359 -137.28,2.359 -3.86,0 -7.97,-0.027 -12.06,-0.027 6.02,-11.152 12.37,-22.812 19.29,-35.293 13.9,0.063 29.1,0.121 40.79,0.121 47.57,0 81.41,-0.66 137.94,-2.39 -6.67,12.199 -12.85,23.55 -18.72,34.332 l -29.96,0.898" /><path
         id="path52"
         style="fill:#d9d2c7;fill-opacity:1;fill-rule:nonzero;stroke:none"
         d="m 1702.14,838.148 c 0.03,0 -1.16,0.942 -2.64,2.102 0.37,-0.68 0.77,-1.418 1.17,-2.102 0.51,0 0.88,0 1.47,0" /><path
         id="path54"
         style="fill:#d9d2c7;fill-opacity:1;fill-rule:nonzero;stroke:none"
         d="m 1406.35,605.789 c 0,77.551 0.03,232.871 0.03,235.199 2.27,0.051 37.33,0.141 67.85,0.203 -5.13,9.239 -10.44,18.77 -16.14,29.039 -19.17,-0.031 -55.93,-0.109 -79.31,-0.171 V 637.98 l -20.22,-1.109 c -43.31,-2.289 -73.81,-4.109 -110.85,-6.949 0,-13.871 0,-25.723 0,-35.051 61.52,5.301 96.84,7.57 158.64,10.918" /><path
         id="path56"
         style="fill:#d9d2c7;fill-opacity:1;fill-rule:nonzero;stroke:none"
         d="m 2043.65,591.289 c 0,181.59 -0.02,684.931 -0.02,684.931 h -27.6 l 0.05,-626.349 V 626.75 l -20.96,1.672 -2.07,0.168 c -43.99,3.492 -73.07,5.531 -108.89,7.492 v -34.691 h 1.59 c 0,0 0,-0.032 0,-0.059 63.33,-3 95.47,-5.051 157.9,-10.043" /><path
         id="path58"
         style="fill:#d9d2c7;fill-opacity:1;fill-rule:nonzero;stroke:none"
         d="m 2545.57,570.301 -4.43,-17.731 -17.98,3.352 -1.79,0.34 c -119.87,22.41 -244.64,41.386 -363.97,55.367 0,-12.109 0,-22.66 0,-31.34 136.2,-14.609 269.21,-40.309 406.46,-66.18 l 32.74,148.582 c -8.8,1.809 -17.73,3.508 -26.72,5.219 l -23.86,-95.82 -0.45,-1.789" /><path
         id="path60"
         style="fill:#d9d2c7;fill-opacity:1;fill-rule:nonzero;stroke:none"
         d="M 2516.18,902.988 V 883.59 h -21.36 l -95.5,0.058 c -49.13,0.032 -87.73,0.032 -110.11,0.051 l 0.05,-102.308 c 9.36,-1.192 18.44,-2.379 27.55,-3.571 0,27.168 0,56.641 0,78.262 1.44,-0.062 153.62,-0.121 226.91,-0.172 v 131.102 c -8.85,0.027 -18.09,0.027 -27.54,0.027 v -84.051" /><path
         id="path62"
         style="fill:#d9d2c7;fill-opacity:1;fill-rule:nonzero;stroke:none"
         d="m 2603.94,1276.22 h -28.08 l -16.31,-98.74 -0.28,-1.62 -2.67,-16.25 h -267.45 l 0.03,-95.79 c 7.57,0 16.96,-0.03 27.57,-0.03 0,35.37 0,68.28 0,68.28 h 262.66 l 24.53,144.15" /><path
         id="path64"
         style="fill:#d9d2c7;fill-opacity:1;fill-rule:nonzero;stroke:none"
         d="m 3171.92,861.102 c 0.34,-8.993 0.48,-18.922 0.48,-30.102 0,-52.27 -0.45,-110.391 -0.91,-166.84 v -0.93 c -0.31,-42.582 -0.62,-84.699 -0.76,-123.789 0,-17.441 -5.99,-44.671 -22.69,-68.703 -19.6,-28.136 -48.96,-43.617 -82.66,-43.617 -9.08,0 -18.58,1.098 -28.25,3.258 -7.69,1.473 -11.46,2.519 -16.68,3.973 -2.27,0.617 -4.91,1.359 -8.48,2.296 -53.75,14.012 -104.55,26.09 -153.82,37.813 -52.05,12.34 -101.18,24.019 -151.56,37.379 -4.65,1.25 -8.96,2.64 -13.16,4.058 9.25,-26.039 28.23,-41.527 67.57,-51.988 98.4,-26.211 170.92,-39.289 281.01,-68.109 11.63,-3.031 10.1,-3.321 20.42,-5.301 73.78,-12.281 135.87,53.66 135.87,145.59 0.31,92.051 1.7,139.129 1.7,231.148 0,57.832 -0.91,77.582 -28.08,93.864" /><path
         id="path66"
         style="fill:#d9d2c7;fill-opacity:1;fill-rule:nonzero;stroke:none"
         d="m 2971.07,786.84 c -11.52,4.82 -31.91,12.051 -62.83,23.031 -41.64,14.777 -98.71,35.027 -177.71,64.809 -13.55,5.109 -26.29,9.961 -38.09,15.121 14.21,-34.551 46.52,-46.801 94.8,-65.071 83.98,-31.761 144.32,-53.089 185.08,-67.648 -0.03,9.789 -0.03,19.578 -0.06,29.129 -0.28,0.168 -0.68,0.398 -1.19,0.629" /><path
         id="path68"
         style="fill:#d9d2c7;fill-opacity:1;fill-rule:nonzero;stroke:none"
         d="m 2814.55,1159.61 v -73.95 l 0.09,-13.47 0.05,-11.52 c 4.06,-1.5 13.65,-4.91 27.43,-9.81 v 81.21 h 127.02 v 27.54 h -154.59" /><path
         id="path70"
         style="fill:#d9d2c7;fill-opacity:1;fill-rule:nonzero;stroke:none"
         d="m 3167.98,1095.5 v -17.98 l -16.09,-2.78 -1.59,-0.25 -110.9,-19.21 v -28.42 l 156.17,27.09 v 89.26 c 0,30.86 -10.86,58.92 -28.79,80.59 0.69,-5.93 1.2,-11.94 1.2,-18.07 V 1095.5" /><path
         id="path72"
         style="fill:#d9d2c7;fill-opacity:1;fill-rule:nonzero;stroke:none"
         d="m 713.656,1461.47 -2.664,-16.26 H 572.711 l 8.539,-27.57 h 153.227 l 112.183,681.95 h -28.055 l -104.664,-636.51 -0.285,-1.61" /><path
         id="path74"
         style="fill:#d9d2c7;fill-opacity:1;fill-rule:nonzero;stroke:none"
         d="m 295.418,1460.33 -0.426,-1.36 -4.168,-13.76 h -131.98 l 4.535,-27.6 h 160.547 l 99.758,327.56 -20.93,67.6 -107.336,-352.44" /><path
         id="path76"
         style="fill:#d9d2c7;fill-opacity:1;fill-rule:nonzero;stroke:none"
         d="m 596.285,1895.19 -59.086,204.4 h -28.988 l 79.422,-274.8 8.652,70.4" /><path
         id="path78"
         style="fill:#d9d2c7;fill-opacity:1;fill-rule:nonzero;stroke:none"
         d="m 239.004,1894.63 -25.16,204.96 h -27.91 l 33.582,-273.55 19.488,68.59" /><path
         id="path80"
         style="fill:#d9d2c7;fill-opacity:1;fill-rule:nonzero;stroke:none"
         d="m 1078.2,1945 c 0,6.02 4,10.02 10.01,10.02 h 123.93 v 27.59 h -161.51 v -350.84 h 27.57 V 1945" /><path
         id="path82"
         style="fill:#d9d2c7;fill-opacity:1;fill-rule:nonzero;stroke:none"
         d="m 1436.45,1552.69 v 432.11 c 0,30.26 -11.74,57.63 -30.81,78 2.07,-9.36 3.24,-19.09 3.24,-29.07 v -453.05 c 0,-74.71 -60.79,-135.47 -135.5,-135.47 H 989.363 c -9.984,0 -19.715,1.17 -29.101,3.24 20.394,-19.09 47.738,-30.84 78.028,-30.84 h 259.43 c 77.43,1.11 136.17,63.06 138.73,135.08" /><path
         id="path84"
         style="fill:#d9d2c7;fill-opacity:1;fill-rule:nonzero;stroke:none"
         d="m 1701.01,1954.45 h 125.45 v 27.57 h -153.02 v -106.77 h 27.57 v 79.2" /><path
         id="path86"
         style="fill:#d9d2c7;fill-opacity:1;fill-rule:nonzero;stroke:none"
         d="m 1673.44,1687.42 v -242.21 h -131.87 v -27.57 h 159.44 v 242.21 h 64.41 l -14.46,27.57 h -77.52" /><path
         id="path88"
         style="fill:#d9d2c7;fill-opacity:1;fill-rule:nonzero;stroke:none"
         d="m 2065.75,1445.21 h -140.41 l 14.47,-27.57 h 174.87 l -14.5,27.57 h -34.43" /><path
         id="path90"
         style="fill:#d9d2c7;fill-opacity:1;fill-rule:nonzero;stroke:none"
         d="m 2027.51,1768 c 0,-35.76 -23.4,-66.14 -55.71,-76.67 l 14.53,-27.65 c 31.68,3.57 68.75,36.19 68.75,79.59 v 297.07 c 0,21.04 -11.06,39.42 -27.62,49.95 0,-0.34 0.05,-0.68 0.05,-1.02 V 1768" /><path
         id="path92"
         style="fill:#d9d2c7;fill-opacity:1;fill-rule:nonzero;stroke:none"
         d="m 2308.98,1633.05 h 27.5781 v 466.539 H 2308.98 Z" /><path
         id="path94"
         style="fill:#d9d2c7;fill-opacity:1;fill-rule:nonzero;stroke:none"
         d="m 2573.2,1461.38 -2.73,-16.17 h -393.36 v -27.57 h 417.19 l 24.53,145.15 h -28.5 l -16.85,-99.79 -0.28,-1.62" /><path
         id="path96"
         style="fill:#d9d2c7;fill-opacity:1;fill-rule:nonzero;stroke:none"
         d="m 3168.03,1587.52 c 0,-78.46 -63.85,-142.31 -142.3,-142.31 h -329.38 v -27.6 h 347.42 c 81.09,1.51 148.88,64.82 151.83,154.79 v 406.24 c 0,31.46 -11.94,59.91 -31.45,81.38 2.44,-10.44 3.88,-21.27 3.88,-32.48 v -440.02" /><path
         id="path98"
         style="fill:#d9d2c7;fill-opacity:1;fill-rule:nonzero;stroke:none"
         d="m 2855.82,1954.45 h 110.06 v 27.57 h -137.63 v -348.98 h 27.57 v 321.41" /><path
         id="path100"
         style="fill:#192846;fill-opacity:1;fill-rule:nonzero;stroke:none"
         d="m 146.305,450.18 110.226,27.14 c 80.215,19.739 142.336,35.059 212.34,52.309 71.422,17.613 84.043,57.832 84.156,135.84 0.032,24.191 0.086,46.031 0.172,67.051 0.141,43.089 0.281,83.789 0,134 -0.457,82.082 -34.465,93.91 -99.59,109.23 -98.738,23.199 -172.769,37.07 -212.539,44.5 -17.527,3.29 -29.101,5.45 -32.304,6.47 -5.59,1.79 -10.723,4.85 -10.696,15.12 l 0.059,19.34 0.027,10.21 v 98.32 c 0,5.64 3.547,9.3 9.047,9.3 H 382.5 c 5.504,0 9.074,-3.66 9.074,-9.3 v -103.54 l 158.418,27.43 1.617,0.26 v 111.87 c 0,69.32 -55.14,125.74 -122.906,125.74 H 158.844 c -67.7932,0 -122.9065,-56.42 -122.9065,-125.74 l -0.0273,-202.07 c 0,-90.172 12.9921,-108.16 92.7228,-128.211 104.269,-26.211 186.472,-41.039 225.957,-48.187 11.996,-2.16 20.648,-3.723 24.93,-4.68 8.71,-1.531 12.679,-5.672 12.652,-13.023 -0.141,-23.661 -0.227,-45.411 -0.34,-67.168 -0.086,-21.782 -0.199,-43.571 -0.34,-67.282 -0.031,-6.75 -3.887,-12.308 -9.59,-13.871 -60.359,-16.367 -180.797,-44.308 -183.461,-44.758 -1.476,0 -2.695,0.481 -3.66,1.45 -1.504,1.5 -2.328,4.218 -2.328,7.629 0.059,18.632 0.113,39.711 0.145,60.75 0.027,20.652 0.086,41.3 0.14,59.57 v 2.551 l -2.468,-0.68 C 128.352,730.73 95.2188,720.609 35.0859,702.23 l -1.3593,-0.429 V 562.129 c 0,-78.57 25.9257,-115.16 81.6054,-115.16 9.359,0 19.77,1.082 30.973,3.211" /><path
         id="path102"
         style="fill:#192846;fill-opacity:1;fill-rule:nonzero;stroke:none"
         d="m 814.578,1059.45 v 8.03 l 0.031,1.93 0.028,109.63 h 270.373 l 0.28,1.62 24.51,148.57 0.4,2.24 H 651.281 v -1.93 c 0,0 -0.054,-630.751 -0.082,-758.56 v -2.351 l 2.324,0.453 c 141.145,27.77 284.586,49.668 426.327,65.098 l 1.47,0.172 0.23,1.468 23.03,148.012 -2.44,-0.172 C 987.945,775.18 927.754,767.07 814.551,751.129 l 0.027,151.953 c 100.301,-0.031 194.012,-0.062 224.992,-0.094 h 1.96 v 141.372 h -1.96 l -224.992,0.03 v 15.06" /><path
         id="path104"
         style="fill:#192846;fill-opacity:1;fill-rule:nonzero;stroke:none"
         d="m 1360.23,1179.01 h 191.86 c -0.03,-16 -0.05,-126.19 -0.08,-157.71 h -192.09 c 0.11,31.29 0.28,141.71 0.31,157.71 z m -0.88,-520.811 0.03,105.922 c 0,58.461 0,114.309 0,125.258 14.18,0.109 99.19,0.25 110.11,0.281 37.87,-68.238 61.16,-109.828 93.3,-167.32 l 32.44,-57.981 0.57,-0.988 h 1.14 c 13.9,0.078 26.43,0.109 38.12,0.109 46.01,0 79.5,-0.57 137.88,-2.351 l 3.38,-0.117 -1.62,2.976 c -46.83,85.383 -72.5,131.5 -114.99,207.91 l -11.55,20.774 1.73,-0.031 h 3.32 c 20.06,0 37.78,6.379 48.9,17.531 8.14,8.168 12.45,18.519 12.43,29.976 -0.09,60.872 -0.23,328.722 -0.23,328.722 0,34.52 -27.43,62.6 -61.18,62.6 h -456.25 v -1.96 l -0.03,-682.17 v -2.102 l 2.1,0.172 c 62.86,5.391 98.23,7.602 158.59,10.84 l 1.81,0.109 v 1.84" /><path
         id="path106"
         style="fill:#192846;fill-opacity:1;fill-rule:nonzero;stroke:none"
         d="m 1996.65,647.77 v 2.101 l -0.03,679.639 v 1.96 H 1833.27 V 657.98 h 2.75 l 0.71,-0.058 c 63.28,-3.012 95.73,-5.051 157.82,-9.981 l 2.1,-0.171" /><path
         id="path108"
         style="fill:#192846;fill-opacity:1;fill-rule:nonzero;stroke:none"
         d="m 2269.75,1179.01 h 270.37 l 0.29,1.62 24.53,148.57 0.37,2.27 h -458.89 v -1.96 c 0,0 0.06,-559.998 0.12,-690.959 v -1.731 l 1.73,-0.199 c 134.96,-14.379 279.02,-35.57 416.65,-61.301 l 1.81,-0.34 0.46,1.758 34.91,140.242 0.49,1.95 -1.99,0.402 c -74.88,15.18 -172.68,30.289 -290.77,44.93 0,12.508 -0.02,90.91 -0.02,138.867 10.26,-0.02 59.08,-0.047 129.51,-0.078 l 95.5,-0.063 h 1.96 v 141.342 h -1.96 l -65.15,0.03 c -72.39,0 -147.07,0.03 -159.89,0.06 l -0.03,134.59" /><path
         id="path110"
         style="fill:#192846;fill-opacity:1;fill-rule:nonzero;stroke:none"
         d="m 2862.6,493.32 c 49.27,-11.711 100.21,-23.8 154.25,-37.898 3.74,-0.961 6.47,-1.731 8.82,-2.383 4.99,-1.391 8.31,-2.301 15.4,-3.66 8.34,-1.899 16.54,-2.859 24.28,-2.859 34.83,0 55.51,19.199 66.74,35.312 14.19,20.367 19.21,43.77 19.21,57.609 0.14,39.457 0.45,81.981 0.82,124.891 0.4,56.25 0.88,114.398 0.88,166.668 0,84.699 -3.09,89.102 -82.26,117.629 -87.67,31.543 -159.86,57.211 -207.66,74.181 -32.73,11.62 -52.5,18.66 -56.84,20.33 -5.64,2.19 -10.89,5.51 -10.95,15.01 l -0.08,13.92 -0.06,13.51 v 84.13 c 0,5.64 3.55,9.3 9.05,9.3 h 175.29 c 5.5,0 9.05,-3.66 9.05,-9.3 v -103.54 l 2.27,0.4 156.15,27.01 1.61,0.28 v 111.87 c 0,69.32 -55.14,125.74 -122.87,125.74 h -269.89 c -67.77,0 -122.91,-56.42 -122.91,-125.74 0,-1.62 -0.31,-161.62 0.46,-200.17 1.47,-74.06 37.89,-87.79 104.01,-112.689 78.85,-29.73 135.81,-49.949 177.39,-64.699 31.18,-11.07 51.8,-18.383 63.8,-23.434 8.79,-3.886 13.1,-9.758 13.1,-17.957 0.09,-25.359 0.14,-52.019 0.2,-78.679 0.06,-27.153 0.11,-54.321 0.2,-80.102 0,-3.551 -0.88,-6.391 -2.53,-8.031 -1.05,-1.078 -2.44,-1.617 -4.08,-1.617 -0.71,0.027 -1.31,0.089 -1.9,0.23 -62.74,14.039 -108.41,25.098 -180.97,43.816 -5.87,1.532 -9.53,6.532 -9.59,13.051 0,1.93 0,30.949 -0.02,58.801 v 43.09 l -0.03,2.32 -2.27,-0.422 -155.36,-27.148 -1.58,-0.281 v -1.618 c 0,-19.461 0,-69.461 0,-70.062 0.14,-91.699 3.17,-129.707 77.83,-149.539 50.12,-13.301 99.13,-24.93 151.04,-37.27" /><path
         id="path112"
         style="fill:#192846;fill-opacity:1;fill-rule:nonzero;stroke:none"
         d="m 112.809,1464.62 h 163.632 l 0.426,1.36 125.715,412.88 127.895,-412.88 0.425,-1.36 h 163.61 l 0.285,1.61 112.152,681.98 0.367,2.24 H 647.172 l -0.199,-1.7 -51.625,-420.46 -121.657,420.77 -0.394,1.39 H 331.813 l -0.399,-1.39 -119.445,-420.65 -51.594,420.34 -0.227,1.7 H 0 l 0.367188,-2.24 112.183812,-681.98 0.258,-1.61" /><path
         id="path114"
         style="fill:#192846;fill-opacity:1;fill-rule:nonzero;stroke:none"
         d="m 1031.2,1620.45 v 373.48 c 0,4.91 3.18,8.09 8.08,8.09 h 184.15 c 4.91,0 8.08,-3.18 8.08,-8.09 v -373.48 c 0,-4.91 -3.17,-8.08 -8.08,-8.08 h -184.15 c -4.9,0 -8.08,3.17 -8.08,8.08 z m -41.864,-155.86 h 284.044 c 63.99,0 116.07,52.07 116.07,116.06 v 453.05 c 0,64.01 -52.08,116.07 -116.07,116.07 H 989.336 c -63.992,0 -116.043,-52.06 -116.043,-116.07 v -453.05 c 0,-63.99 52.051,-116.06 116.043,-116.06" /><path
         id="path116"
         style="fill:#192846;fill-opacity:1;fill-rule:nonzero;stroke:none"
         d="m 1654.04,2001.42 h 191.84 v -145.58 h -191.84 z m 287.76,-294.6 h 5.13 c 33.73,0 61.18,27.43 61.18,61.18 v 321.27 c 0,33.72 -27.45,61.18 -61.18,61.18 h -456.25 v -685.83 h 163.36 v 242.2 h 108.63 l 126.51,-241.18 0.54,-1.02 h 179.23 l -1.5,2.83 -125.65,239.37" /><path
         id="path118"
         style="fill:#192846;fill-opacity:1;fill-rule:nonzero;stroke:none"
         d="m 2552.43,1464.62 h 1.65 l 0.25,1.61 24.54,145.14 0.4,2.27 h -289.69 v 536.81 h -163.33 v -685.83 h 426.18" /><path
         id="path120"
         style="fill:#192846;fill-opacity:1;fill-rule:nonzero;stroke:none"
         d="m 2808.82,2001.42 h 167.41 c 5.5,0 9.05,-3.54 9.05,-9.05 v -369.68 c 0,-5.5 -3.55,-9.05 -9.05,-9.05 h -167.41 z m -163.32,149.03 v -685.83 h 380.23 c 67.76,0 122.87,55.14 122.87,122.9 v 440.02 c 0,67.76 -55.11,122.91 -122.87,122.91 H 2645.5" /><path
         id="path122"
         style="fill:#df1a35;fill-opacity:1;fill-rule:nonzero;stroke:none"
         d="m 2066.26,2236.65 c 0,-7.8 -5.99,-13.67 -13.5,-13.67 -7.43,0 -13.5,5.87 -13.5,13.67 0,7.8 6.07,13.67 13.5,13.67 7.51,0 13.5,-5.87 13.5,-13.67 z m -30.75,0 c 0,-9.7 7.63,-17.45 17.25,-17.45 9.67,0 17.33,7.75 17.33,17.45 0,9.7 -7.66,17.36 -17.33,17.36 -9.62,0 -17.25,-7.66 -17.25,-17.36" /><path
         id="path124"
         style="fill:#df1a35;fill-opacity:1;fill-rule:nonzero;stroke:none"
         d="m 2049.3,2242.49 h 4.2 c 1.7,0 4.17,0 4.17,-1.93 0,-2.04 -1.28,-2.44 -3.27,-2.44 h -5.1 z m -3.83,-14.83 h 3.83 v 7.17 h 3.15 l 4.22,-7.17 h 4.12 l -4.4,7.17 c 3.18,0.23 4.93,2.02 4.93,5.39 0,4.8 -2.89,5.56 -7,5.56 h -8.85 v -18.12" /><path
         id="path126"
         style="fill:#192846;fill-opacity:1;fill-rule:nonzero;stroke:none"
         d="m 3074.03,311.961 h -0.23 l -11.4,31.961 h -17.33 v -48.934 h 10.01 v 38.953 h 0.2 l 13.73,-38.953 h 9.7 l 14.16,38.953 h 0.22 v -38.953 h 9.99 v 48.934 h -17.22 l -11.83,-31.961 m -77.43,23.258 v 8.703 h 39.54 v -8.703 h -14.75 v -40.231 h -9.99 v 40.231 h -14.8" /></g></g></svg>